<svg viewBox="0 0 93 43" fill="none" xmlns="http://www.w3.org/2000/svg">
<g id="LG_logo_(2014) 1">
<path id="Vector" d="M81.1828 24.4631H85.9988V28.9825C85.115 29.3225 83.3802 29.6626 81.7357 29.6626C76.4087 29.6626 74.6372 26.9347 74.6372 21.395C74.6372 16.1082 76.3237 12.9971 81.6456 12.9971C84.6116 12.9971 86.2942 13.9359 87.6891 15.7261L91.3689 12.3156C89.1219 9.08329 85.1999 8.10367 81.5176 8.10367C73.2386 8.10035 68.8854 12.6559 68.8854 21.351C68.8854 30.0029 72.8188 34.693 81.4733 34.693C85.4473 34.693 89.3313 33.6726 91.4464 32.1771V19.6464H81.183L81.1828 24.4631ZM55.9209 29.2797H68.1769V34.3093H50.0063V8.48273H55.9214L55.9209 29.2797Z" fill="var(--fill-0, #6B6C6B)"/>
<path id="Vector_2" d="M35.3462 35.6243C43.0778 27.8248 43.0773 15.1782 35.3454 7.38036C27.6136 -0.418898 15.0776 -0.419836 7.34779 7.3796C-0.383766 15.179 -0.383301 27.8257 7.34855 35.6236C15.0803 43.4234 27.6163 43.4236 35.3462 35.6243Z" fill="var(--fill-0, #A50034)"/>
<path id="Vector_3" d="M15.3405 17.6065C15.7919 17.6044 16.2326 17.4672 16.6069 17.2126C16.9811 16.958 17.2722 16.5973 17.4434 16.1759C17.6147 15.7545 17.6584 15.2913 17.569 14.845C17.4794 14.3986 17.261 13.989 16.941 13.6678C16.621 13.3466 16.2138 13.1281 15.7709 13.0401C15.3281 12.9521 14.8692 12.9984 14.4524 13.1731C14.0354 13.348 13.6792 13.6433 13.4287 14.0222C13.1781 14.401 13.0445 14.8462 13.0445 15.3016C13.0451 15.605 13.1051 15.9053 13.2209 16.1854C13.3368 16.4655 13.5061 16.7198 13.7192 16.9338C13.9325 17.1478 14.1855 17.3174 14.4635 17.4328C14.7418 17.5483 15.0397 17.6073 15.3405 17.6065ZM36.281 22.1348H26.213V20.6304H37.7566C37.7723 20.9218 37.7802 21.213 37.7802 21.5079C37.7802 30.567 30.4614 37.9104 21.4354 37.9104C12.4092 37.9104 5.08914 30.5715 5.08914 21.5079C5.08914 12.4451 12.4068 5.10535 21.4339 5.10535C21.6722 5.10535 21.9093 5.11021 22.1453 5.12006V6.61327C21.9093 6.60265 21.6729 6.59741 21.436 6.59741C13.2317 6.59741 6.57837 13.2732 6.57837 21.5064C6.57837 29.7397 13.2308 36.4167 21.436 36.4167C29.4158 36.4167 35.9347 30.1004 36.2798 22.1767L36.281 22.1348ZM26.19 28.4027H22.1439V13.0676H20.648V29.9174H22.1473V29.9073H26.1935L26.19 28.4027Z" fill="var(--fill-0, white)"/>
</g>
</svg>
