<svg width="162" height="16" viewBox="0 0 162 16" fill="none" xmlns="http://www.w3.org/2000/svg">
<g clip-path="url(#clip0_38_13)">
<path d="M11.2089 0H20.3797V5H14.2658L8.1519 11H20.3797L31.5886 0H40.7595V5H34.6456L28.5316 11H40.7595L51.9684 0H61.1392V5H55.0253L43.8165 16H23.4367L28.5316 11H20.3797L15.2848 16H3.05696L8.1519 11H0L11.2089 0Z" fill="white"/>
<path d="M80.7217 16C79.5142 16 78.5897 15.6667 77.9478 15C77.3214 14.3333 77.0078 13.3926 77.0078 12.1778V3.82225C77.0078 2.60744 77.3214 1.66667 77.9478 0.999999C78.5897 0.333335 79.5142 0 80.7217 0C81.9286 0 82.8456 0.333335 83.4727 0.999999C84.114 1.66667 84.435 2.60744 84.435 3.82225V5.46666H82.0509V3.66667C82.0509 2.70373 81.6306 2.22222 80.79 2.22222C79.95 2.22222 79.5297 2.70373 79.5297 3.66667V12.3556C79.5297 13.3037 79.95 13.7778 80.79 13.7778C81.6306 13.7778 82.0509 13.3037 82.0509 12.3556V9.97781H84.435V12.1778C84.435 13.3926 84.114 14.3333 83.4727 15C82.8456 15.6667 81.9286 16 80.7217 16Z" fill="white"/>
<path d="M88.0588 9.15552L85.0098 0.222168H87.6918L89.4116 5.93327H89.4569L91.1767 0.222168H93.6296L90.5807 9.15552V15.7777H88.0588V9.15552Z" fill="white"/>
<path d="M97.9151 16C96.7075 16 95.7831 15.6667 95.1411 15C94.514 14.3333 94.2012 13.3926 94.2012 12.1778V3.82225C94.2012 2.60744 94.514 1.66667 95.1411 0.999999C95.7831 0.333335 96.7075 0 97.9151 0C99.122 0 100.039 0.333335 100.665 0.999999C101.307 1.66667 101.628 2.60744 101.628 3.82225V5.46666H99.2443V3.66667C99.2443 2.70373 98.824 2.22222 97.9833 2.22222C97.1427 2.22222 96.7224 2.70373 96.7224 3.66667V12.3556C96.7224 13.3037 97.1427 13.7778 97.9833 13.7778C98.824 13.7778 99.2443 13.3037 99.2443 12.3556V9.97781H101.628V12.1778C101.628 13.3926 101.307 14.3333 100.665 15C100.039 15.6667 99.122 16 97.9151 16Z" fill="white"/>
<path d="M106.826 16C105.588 16 104.641 15.6592 103.983 14.9778C103.326 14.2963 102.998 13.3333 102.998 12.0889V3.91114C102.998 2.66666 103.326 1.70371 103.983 1.02223C104.641 0.340744 105.588 0 106.826 0C108.064 0 109.012 0.340744 109.668 1.02223C110.326 1.70371 110.654 2.66666 110.654 3.91114V12.0889C110.654 13.3333 110.326 14.2963 109.668 14.9778C109.012 15.6592 108.064 16 106.826 16ZM106.826 13.7778C107.697 13.7778 108.133 13.2667 108.133 12.2445V3.75557C108.133 2.73334 107.697 2.22222 106.826 2.22222C105.955 2.22222 105.519 2.73334 105.519 3.75557V12.2445C105.519 13.2667 105.955 13.7778 106.826 13.7778Z" fill="white"/>
<path d="M112.359 0.222168H115.958L117.563 11.3555H117.609L119.213 0.222168H122.813V15.7777H120.428V3.99992H120.383L118.549 15.7777H116.44L114.606 3.99992H114.56V15.7777H112.359V0.222168Z" fill="white"/>
<path d="M124.695 0.222168H128.294L129.899 11.3555H129.945L131.549 0.222168H135.148V15.7777H132.764V3.99992H132.718L130.884 15.7777H128.775L126.941 3.99992H126.896V15.7777H124.695V0.222168Z" fill="white"/>
<path d="M140.31 16C139.087 16 138.162 15.6667 137.536 15C136.909 14.3185 136.596 13.3482 136.596 12.0889V11.2H138.98V12.2667C138.98 13.2741 139.416 13.7778 140.287 13.7778C140.714 13.7778 141.035 13.6593 141.25 13.4222C141.479 13.1704 141.594 12.7703 141.594 12.2223C141.594 11.5704 141.44 11 141.135 10.5111C140.829 10.0074 140.264 9.40738 139.439 8.71112C138.399 7.8222 137.674 7.02223 137.261 6.3111C136.848 5.58516 136.642 4.77039 136.642 3.86667C136.642 2.63705 136.963 1.68889 137.605 1.02223C138.247 0.340744 139.178 0 140.401 0C141.608 0 142.518 0.340744 143.129 1.02223C143.756 1.68889 144.069 2.65185 144.069 3.91114V4.55553H141.685V3.75557C141.685 3.22221 141.578 2.83704 141.364 2.59997C141.15 2.34815 140.837 2.22222 140.424 2.22222C139.584 2.22222 139.164 2.71854 139.164 3.71109C139.164 4.27405 139.316 4.8 139.622 5.28887C139.943 5.77781 140.516 6.37038 141.341 7.06665C142.396 7.95557 143.121 8.763 143.519 9.48887C143.916 10.2148 144.115 11.0667 144.115 12.0445C144.115 13.3185 143.786 14.2963 143.129 14.9778C142.488 15.6592 141.548 16 140.31 16Z" fill="white"/>
<path d="M145.561 0.222168H152.438V2.4444H148.082V6.55551H151.544V8.77775H148.082V13.5555H152.438V15.7777H145.561V0.222168Z" fill="white"/>
<path d="M157.442 16C156.235 16 155.31 15.6667 154.669 15C154.042 14.3333 153.729 13.3926 153.729 12.1778V3.82225C153.729 2.60744 154.042 1.66667 154.669 0.999999C155.31 0.333335 156.235 0 157.442 0C158.649 0 159.566 0.333335 160.193 0.999999C160.835 1.66667 161.156 2.60744 161.156 3.82225V5.46666H158.772V3.66667C158.772 2.70373 158.351 2.22222 157.511 2.22222C156.671 2.22222 156.25 2.70373 156.25 3.66667V12.3556C156.25 13.3037 156.671 13.7778 157.511 13.7778C158.351 13.7778 158.772 13.3037 158.772 12.3556V9.97781H161.156V12.1778C161.156 13.3926 160.835 14.3333 160.193 15C159.566 15.6667 158.649 16 157.442 16Z" fill="white"/>
</g>
<defs>
<clipPath id="clip0_38_13">
<rect width="162" height="16" fill="white"/>
</clipPath>
</defs>
</svg>
